<svg width="22" height="21" viewBox="0 0 22 21" fill="none" xmlns="http://www.w3.org/2000/svg">
<path fill-rule="evenodd" clip-rule="evenodd" d="M9.16665 2.625H12.8333C13.8458 2.625 14.6666 3.4085 14.6666 4.375V5.25H18.3333C19.3458 5.25 20.1666 6.0335 20.1666 7V16.625C20.1666 17.5915 19.3458 18.375 18.3333 18.375H3.66665C2.65412 18.375 1.83331 17.5915 1.83331 16.625V7C1.83331 6.0335 2.65412 5.25 3.66665 5.25H7.33331V4.375C7.33331 3.4085 8.15412 2.625 9.16665 2.625ZM3.66665 7H7.33331H14.6666H18.3333V11.375H11.9166H10.0833H3.66665V7ZM3.66665 16.625V13.125H10.0833V14H11.9166V13.125H18.3333V16.625H3.66665ZM12.8333 4.375V5.25H9.16665V4.375H12.8333Z" fill="#B8C5D3"/>
</svg>
