<svg width="21" height="22" viewBox="0 0 21 22" fill="none" xmlns="http://www.w3.org/2000/svg">
<path fill-rule="evenodd" clip-rule="evenodd" d="M5.71829 4.58337H18.375C19.3415 4.58337 20.125 5.40419 20.125 6.41671V15.5834C20.125 16.5959 19.3415 17.4167 18.375 17.4167H5.71829C5.13317 17.4167 4.58676 17.1104 4.2622 16.6003L1.02196 11.5085C0.826015 11.2006 0.826015 10.7995 1.02196 10.4916L4.2622 5.39976C4.58676 4.88973 5.13317 4.58337 5.71829 4.58337ZM2.80162 11L5.71829 15.5834H18.375V6.41671H5.71829L2.80162 11ZM7 11C7 11.5063 6.60825 11.9167 6.125 11.9167C5.64175 11.9167 5.25 11.5063 5.25 11C5.25 10.4938 5.64175 10.0834 6.125 10.0834C6.60825 10.0834 7 10.4938 7 11Z" fill="#B8C5D3"/>
</svg>
