<svg width="99" height="36" viewBox="0 0 99 36" fill="none" xmlns="http://www.w3.org/2000/svg">
<rect width="99" height="30" rx="5" transform="matrix(-1 0 0 1 99 2)" fill="url(#paint0_linear)"/>
<path d="M18.3188 12.6846V21H17.1953L13.1899 14.5698L13.1519 14.5762V21H12.0283V12.6846H13.1519L17.1572 19.1021L17.1953 19.0894V12.6846H18.3188ZM23.9619 17.1597C23.9619 16.6942 23.8413 16.3197 23.6001 16.0361C23.3589 15.7484 23.0119 15.6045 22.5591 15.6045C22.1867 15.6045 21.8651 15.7611 21.5942 16.0742C21.3276 16.3874 21.1626 16.7873 21.0991 17.2739L21.1118 17.3057H23.9619V17.1597ZM22.7305 21.1333C21.8714 21.1333 21.1859 20.8498 20.6738 20.2827C20.166 19.7157 19.9121 18.9688 19.9121 18.042V17.7881C19.9121 16.9206 20.1702 16.1927 20.6865 15.6045C21.207 15.012 21.8312 14.7158 22.5591 14.7158C23.38 14.7158 24.0063 14.9634 24.438 15.4585C24.8739 15.9494 25.0918 16.6243 25.0918 17.4834V18.188H21.0801L21.061 18.2134C21.0737 18.8228 21.2261 19.3158 21.5181 19.6924C21.8143 20.0648 22.2184 20.251 22.7305 20.251C23.4499 20.251 24.0339 20.0479 24.4824 19.6416L24.9268 20.3716H24.9204C24.4041 20.8794 23.6742 21.1333 22.7305 21.1333ZM26.9263 14.8174L27.9482 18.7466L28.0815 19.4956H28.1133L28.272 18.7466L29.5098 14.8174H30.4111L31.6489 18.7466L31.8267 19.5845H31.8647L32.0298 18.7466L33.001 14.8174H34.1182L32.3218 21H31.4141L30.2207 17.2358L29.9668 16.1821L29.9287 16.1885L29.6875 17.2358L28.5068 21H27.5991L25.8091 14.8174H26.9263ZM39.7422 14.8174V21H38.6187V14.8174H39.7422ZM39.7422 12.0879V13.2368H38.6187V12.0879H39.7422ZM41.8306 13.3384H42.9668V14.8301H44.1348V15.668H42.9668V19.4194C42.9668 19.9442 43.1847 20.2065 43.6206 20.2065C43.756 20.2065 43.8957 20.1812 44.0396 20.1304L44.1855 20.8984C43.9824 21.055 43.6968 21.1333 43.3286 21.1333C42.8547 21.1333 42.4865 20.9915 42.2241 20.708C41.9618 20.4245 41.8306 19.995 41.8306 19.4194V15.668H40.853V14.8301H41.8306V13.3384ZM49.3145 17.1597C49.3145 16.6942 49.1938 16.3197 48.9526 16.0361C48.7114 15.7484 48.3644 15.6045 47.9116 15.6045C47.5392 15.6045 47.2176 15.7611 46.9468 16.0742C46.6802 16.3874 46.5151 16.7873 46.4517 17.2739L46.4644 17.3057H49.3145V17.1597ZM48.083 21.1333C47.224 21.1333 46.5384 20.8498 46.0264 20.2827C45.5186 19.7157 45.2646 18.9688 45.2646 18.042V17.7881C45.2646 16.9206 45.5228 16.1927 46.0391 15.6045C46.5596 15.012 47.1838 14.7158 47.9116 14.7158C48.7326 14.7158 49.3589 14.9634 49.7905 15.4585C50.2264 15.9494 50.4443 16.6243 50.4443 17.4834V18.188H46.4326L46.4136 18.2134C46.4263 18.8228 46.5786 19.3158 46.8706 19.6924C47.1668 20.0648 47.571 20.251 48.083 20.251C48.8024 20.251 49.3864 20.0479 49.835 19.6416L50.2793 20.3716H50.2729C49.7567 20.8794 49.0267 21.1333 48.083 21.1333ZM52.8438 21H51.7266V14.8174H52.7295L52.812 15.6299C53.2352 15.012 53.8615 14.7031 54.6909 14.7031C55.5246 14.7031 56.0895 15.084 56.3857 15.8457C56.8132 15.084 57.4437 14.7031 58.2773 14.7031C58.9248 14.7031 59.4263 14.9232 59.7817 15.3633C60.1372 15.7992 60.3149 16.4466 60.3149 17.3057V21H59.1914V17.293C59.1914 16.6963 59.0898 16.2689 58.8867 16.0107C58.6836 15.7484 58.3789 15.6172 57.9727 15.6172C57.5706 15.6172 57.249 15.7484 57.0078 16.0107C56.7708 16.2689 56.6312 16.6074 56.5889 17.0264V21H55.4526V17.293C55.4526 16.7174 55.3468 16.2943 55.1353 16.0234C54.9279 15.7526 54.6169 15.6172 54.2021 15.6172C53.5505 15.6172 53.0977 15.8859 52.8438 16.4233V21Z" fill="white"/>
<rect width="25" height="25" rx="5" transform="matrix(-1 0 0 1 96 5)" fill="url(#paint1_linear)"/>
<path d="M85.3262 10.9609V16.1699H90.2344V18.3574H85.3262V24.0039H82.9062V18.3574H77.957V16.1699H82.9062V10.9609H85.3262Z" fill="white"/>
<defs>
<linearGradient id="paint0_linear" x1="0" y1="0" x2="0" y2="30" gradientUnits="userSpaceOnUse">
<stop offset="0.9999" stop-color="#679CF6"/>
<stop offset="1" stop-color="#4072EE"/>
</linearGradient>
<linearGradient id="paint1_linear" x1="0" y1="0" x2="0" y2="25" gradientUnits="userSpaceOnUse">
<stop offset="0.9999" stop-color="#4A7CFA"/>
<stop offset="1" stop-color="#4072EE"/>
</linearGradient>
</defs>
</svg>
