<svg width="99" height="30" viewBox="0 0 99 30" fill="none" xmlns="http://www.w3.org/2000/svg">
<rect width="99" height="30" rx="5" transform="matrix(-1 0 0 1 99 0)" fill="#C4C7CE"/>
<path d="M31.8271 16.353H32.8999L32.9126 16.3848C32.9295 17.1803 32.6545 17.8384 32.0874 18.3589C31.5203 18.8752 30.7713 19.1333 29.8403 19.1333C28.9093 19.1333 28.1476 18.8032 27.5552 18.1431C26.9627 17.4787 26.6665 16.6302 26.6665 15.5977V14.1187C26.6665 13.0861 26.9627 12.2376 27.5552 11.5732C28.1476 10.9089 28.9157 10.5767 29.8594 10.5767C30.8031 10.5767 31.5521 10.8263 32.1064 11.3257C32.665 11.8208 32.9359 12.4852 32.9189 13.3188L32.9062 13.3506H31.8271C31.8271 12.7581 31.6536 12.2948 31.3066 11.9604C30.9639 11.6261 30.4814 11.459 29.8594 11.459C29.2415 11.459 28.7443 11.7087 28.3677 12.208C27.991 12.7074 27.8027 13.34 27.8027 14.106V15.5977C27.8027 16.3721 27.991 17.009 28.3677 17.5083C28.7443 18.0034 29.2437 18.251 29.8657 18.251C30.4878 18.251 30.9702 18.0859 31.313 17.7559C31.6558 17.4215 31.8271 16.9539 31.8271 16.353ZM35.4453 10.0879V19H34.3218V10.0879H35.4453ZM40.9678 15.1597C40.9678 14.6942 40.8472 14.3197 40.606 14.0361C40.3647 13.7484 40.0177 13.6045 39.5649 13.6045C39.1925 13.6045 38.8709 13.7611 38.6001 14.0742C38.3335 14.3874 38.1685 14.7873 38.105 15.2739L38.1177 15.3057H40.9678V15.1597ZM39.7363 19.1333C38.8773 19.1333 38.1917 18.8498 37.6797 18.2827C37.1719 17.7157 36.918 16.9688 36.918 16.042V15.7881C36.918 14.9206 37.1761 14.1927 37.6924 13.6045C38.2129 13.012 38.8371 12.7158 39.5649 12.7158C40.3859 12.7158 41.0122 12.9634 41.4438 13.4585C41.8797 13.9494 42.0977 14.6243 42.0977 15.4834V16.188H38.0859L38.0669 16.2134C38.0796 16.8228 38.2319 17.3158 38.5239 17.6924C38.8201 18.0648 39.2243 18.251 39.7363 18.251C40.4557 18.251 41.0397 18.0479 41.4883 17.6416L41.9326 18.3716H41.9263C41.41 18.8794 40.68 19.1333 39.7363 19.1333ZM45.1318 19.1333C44.4886 19.1333 43.9977 18.9704 43.6592 18.6445C43.3206 18.3187 43.1514 17.8617 43.1514 17.2734C43.1514 16.6852 43.3883 16.224 43.8623 15.8896C44.3363 15.5553 44.988 15.3882 45.8174 15.3882H47.0361V14.7788C47.0361 14.4149 46.924 14.1292 46.6997 13.9219C46.4797 13.7103 46.1792 13.6045 45.7983 13.6045C45.4217 13.6045 45.1191 13.6955 44.8906 13.8774C44.6621 14.0552 44.5479 14.2773 44.5479 14.5439H43.4751L43.4624 14.5122C43.4412 14.0467 43.6571 13.632 44.1099 13.2681C44.5669 12.8999 45.1466 12.7158 45.8491 12.7158C46.5558 12.7158 47.1187 12.8978 47.5376 13.2617C47.9565 13.6214 48.166 14.1313 48.166 14.7915V17.7686C48.166 18.2467 48.2189 18.6615 48.3247 19.0127H47.1631C47.0827 18.6191 47.0404 18.3102 47.0361 18.0859C46.8161 18.3991 46.5368 18.653 46.1982 18.8477C45.8639 19.0381 45.5085 19.1333 45.1318 19.1333ZM44.2876 17.2988H44.2812C44.2812 17.5781 44.368 17.7961 44.5415 17.9526C44.715 18.1092 44.9837 18.1875 45.3477 18.1875C45.7116 18.1875 46.0586 18.0859 46.3887 17.8828C46.723 17.6755 46.9409 17.4342 47.0425 17.1592V16.1499H45.7856C45.3371 16.1499 44.9753 16.262 44.7002 16.4863C44.4251 16.7064 44.2876 16.9772 44.2876 17.2988ZM50.9336 19.0063H49.8101V12.8237H50.813L50.9209 13.7251C51.2975 13.0438 51.8096 12.7031 52.457 12.7031C52.6094 12.7031 52.7533 12.7243 52.8887 12.7666L52.7363 13.8203L52.1587 13.7822C51.5789 13.7822 51.1706 14.0509 50.9336 14.5884V19.0063Z" fill="white"/>
<rect width="25" height="25" rx="5" transform="matrix(-1 0 0 1 96 3)" fill="#9F9F9F"/>
<path d="M88.7734 22.1758V23.8047H79.0469V22.1758H88.7734Z" fill="white"/>
</svg>
