<svg width="99" height="31" viewBox="0 0 99 31" fill="none" xmlns="http://www.w3.org/2000/svg">
<rect width="99" height="30" rx="5" transform="matrix(-1 0 0 1 99 1)" fill="url(#paint0_linear)"/>
<path d="M31.8271 17.353H32.8999L32.9126 17.3848C32.9295 18.1803 32.6545 18.8384 32.0874 19.3589C31.5203 19.8752 30.7713 20.1333 29.8403 20.1333C28.9093 20.1333 28.1476 19.8032 27.5552 19.1431C26.9627 18.4787 26.6665 17.6302 26.6665 16.5977V15.1187C26.6665 14.0861 26.9627 13.2376 27.5552 12.5732C28.1476 11.9089 28.9157 11.5767 29.8594 11.5767C30.8031 11.5767 31.5521 11.8263 32.1064 12.3257C32.665 12.8208 32.9359 13.4852 32.9189 14.3188L32.9062 14.3506H31.8271C31.8271 13.7581 31.6536 13.2948 31.3066 12.9604C30.9639 12.6261 30.4814 12.459 29.8594 12.459C29.2415 12.459 28.7443 12.7087 28.3677 13.208C27.991 13.7074 27.8027 14.34 27.8027 15.106V16.5977C27.8027 17.3721 27.991 18.009 28.3677 18.5083C28.7443 19.0034 29.2437 19.251 29.8657 19.251C30.4878 19.251 30.9702 19.0859 31.313 18.7559C31.6558 18.4215 31.8271 17.9539 31.8271 17.353ZM35.4453 11.0879V20H34.3218V11.0879H35.4453ZM40.9678 16.1597C40.9678 15.6942 40.8472 15.3197 40.606 15.0361C40.3647 14.7484 40.0177 14.6045 39.5649 14.6045C39.1925 14.6045 38.8709 14.7611 38.6001 15.0742C38.3335 15.3874 38.1685 15.7873 38.105 16.2739L38.1177 16.3057H40.9678V16.1597ZM39.7363 20.1333C38.8773 20.1333 38.1917 19.8498 37.6797 19.2827C37.1719 18.7157 36.918 17.9688 36.918 17.042V16.7881C36.918 15.9206 37.1761 15.1927 37.6924 14.6045C38.2129 14.012 38.8371 13.7158 39.5649 13.7158C40.3859 13.7158 41.0122 13.9634 41.4438 14.4585C41.8797 14.9494 42.0977 15.6243 42.0977 16.4834V17.188H38.0859L38.0669 17.2134C38.0796 17.8228 38.2319 18.3158 38.5239 18.6924C38.8201 19.0648 39.2243 19.251 39.7363 19.251C40.4557 19.251 41.0397 19.0479 41.4883 18.6416L41.9326 19.3716H41.9263C41.41 19.8794 40.68 20.1333 39.7363 20.1333ZM45.1318 20.1333C44.4886 20.1333 43.9977 19.9704 43.6592 19.6445C43.3206 19.3187 43.1514 18.8617 43.1514 18.2734C43.1514 17.6852 43.3883 17.224 43.8623 16.8896C44.3363 16.5553 44.988 16.3882 45.8174 16.3882H47.0361V15.7788C47.0361 15.4149 46.924 15.1292 46.6997 14.9219C46.4797 14.7103 46.1792 14.6045 45.7983 14.6045C45.4217 14.6045 45.1191 14.6955 44.8906 14.8774C44.6621 15.0552 44.5479 15.2773 44.5479 15.5439H43.4751L43.4624 15.5122C43.4412 15.0467 43.6571 14.632 44.1099 14.2681C44.5669 13.8999 45.1466 13.7158 45.8491 13.7158C46.5558 13.7158 47.1187 13.8978 47.5376 14.2617C47.9565 14.6214 48.166 15.1313 48.166 15.7915V18.7686C48.166 19.2467 48.2189 19.6615 48.3247 20.0127H47.1631C47.0827 19.6191 47.0404 19.3102 47.0361 19.0859C46.8161 19.3991 46.5368 19.653 46.1982 19.8477C45.8639 20.0381 45.5085 20.1333 45.1318 20.1333ZM44.2876 18.2988H44.2812C44.2812 18.5781 44.368 18.7961 44.5415 18.9526C44.715 19.1092 44.9837 19.1875 45.3477 19.1875C45.7116 19.1875 46.0586 19.0859 46.3887 18.8828C46.723 18.6755 46.9409 18.4342 47.0425 18.1592V17.1499H45.7856C45.3371 17.1499 44.9753 17.262 44.7002 17.4863C44.4251 17.7064 44.2876 17.9772 44.2876 18.2988ZM50.9336 20.0063H49.8101V13.8237H50.813L50.9209 14.7251C51.2975 14.0438 51.8096 13.7031 52.457 13.7031C52.6094 13.7031 52.7533 13.7243 52.8887 13.7666L52.7363 14.8203L52.1587 14.7822C51.5789 14.7822 51.1706 15.0509 50.9336 15.5884V20.0063Z" fill="white"/>
<rect width="25" height="25" rx="5" transform="matrix(-1 0 0 1 96 4)" fill="url(#paint1_linear)"/>
<path d="M88.7734 22.1758V23.8047H79.0469V22.1758H88.7734Z" fill="white"/>
<defs>
<linearGradient id="paint0_linear" x1="0" y1="0" x2="0" y2="30" gradientUnits="userSpaceOnUse">
<stop offset="0.9998" stop-color="#C4C7CE"/>
<stop offset="0.9999" stop-color="#C4C7CE"/>
<stop offset="1" stop-color="#4072EE"/>
</linearGradient>
<linearGradient id="paint1_linear" x1="0" y1="0" x2="0" y2="25" gradientUnits="userSpaceOnUse">
<stop offset="0.9999" stop-color="#9F9F9F"/>
<stop offset="1" stop-color="#4072EE"/>
</linearGradient>
</defs>
</svg>
