<svg width="14" height="14" viewBox="0 0 14 14" fill="none" xmlns="http://www.w3.org/2000/svg">
<path fill-rule="evenodd" clip-rule="evenodd" d="M7 14C3.13401 14 0 10.866 0 7C0 3.13401 3.13401 0 7 0C10.866 0 14 3.13401 14 7C14 10.866 10.866 14 7 14ZM7 12.25C9.8995 12.25 12.25 9.8995 12.25 7C12.25 4.1005 9.8995 1.75 7 1.75C4.1005 1.75 1.75 4.1005 1.75 7C1.75 9.8995 4.1005 12.25 7 12.25ZM4.99372 10.2437L7 8.23744L9.00628 10.2437L10.2437 9.00629L8.23744 7.00001L10.2437 4.99372L9.00628 3.75629L7 5.76257L4.99372 3.75629L3.75628 4.99372L5.76256 7.00001L3.75628 9.00629L4.99372 10.2437Z" fill="#FF5353"/>
</svg>
