<svg width="99" height="30" viewBox="0 0 99 30" fill="none" xmlns="http://www.w3.org/2000/svg">
<rect width="99" height="30" rx="5" transform="matrix(-1 0 0 1 99 0)" fill="#FF5353"/>
<path d="M24.5801 11.5669H23.1519V18.1177H24.5801C25.346 18.1177 25.9512 17.8701 26.3955 17.375C26.8441 16.8757 27.0684 16.2218 27.0684 15.4136V14.2646C27.0684 13.4606 26.8441 12.811 26.3955 12.3159C25.9469 11.8166 25.3418 11.5669 24.5801 11.5669ZM24.5801 19H22.0283V10.6846H24.5801C25.6719 10.6846 26.5457 11.0168 27.2017 11.6812C27.8618 12.3413 28.1919 13.2067 28.1919 14.2773V15.4136C28.1919 16.4842 27.8618 17.3496 27.2017 18.0098C26.5457 18.6699 25.6719 19 24.5801 19ZM33.3145 15.1597C33.3145 14.6942 33.1938 14.3197 32.9526 14.0361C32.7114 13.7484 32.3644 13.6045 31.9116 13.6045C31.5392 13.6045 31.2176 13.7611 30.9468 14.0742C30.6802 14.3874 30.5151 14.7873 30.4517 15.2739L30.4644 15.3057H33.3145V15.1597ZM32.083 19.1333C31.224 19.1333 30.5384 18.8498 30.0264 18.2827C29.5186 17.7157 29.2646 16.9688 29.2646 16.042V15.7881C29.2646 14.9206 29.5228 14.1927 30.0391 13.6045C30.5596 13.012 31.1838 12.7158 31.9116 12.7158C32.7326 12.7158 33.3589 12.9634 33.7905 13.4585C34.2264 13.9494 34.4443 14.6243 34.4443 15.4834V16.188H30.4326L30.4136 16.2134C30.4263 16.8228 30.5786 17.3158 30.8706 17.6924C31.1668 18.0648 31.571 18.251 32.083 18.251C32.8024 18.251 33.3864 18.0479 33.835 17.6416L34.2793 18.3716H34.2729C33.7567 18.8794 33.0267 19.1333 32.083 19.1333ZM36.9326 10.0879V19H35.8091V10.0879H36.9326ZM42.4551 15.1597C42.4551 14.6942 42.3345 14.3197 42.0933 14.0361C41.8521 13.7484 41.505 13.6045 41.0522 13.6045C40.6799 13.6045 40.3582 13.7611 40.0874 14.0742C39.8208 14.3874 39.6558 14.7873 39.5923 15.2739L39.605 15.3057H42.4551V15.1597ZM41.2236 19.1333C40.3646 19.1333 39.679 18.8498 39.167 18.2827C38.6592 17.7157 38.4053 16.9688 38.4053 16.042V15.7881C38.4053 14.9206 38.6634 14.1927 39.1797 13.6045C39.7002 13.012 40.3244 12.7158 41.0522 12.7158C41.8732 12.7158 42.4995 12.9634 42.9312 13.4585C43.367 13.9494 43.585 14.6243 43.585 15.4834V16.188H39.5732L39.5542 16.2134C39.5669 16.8228 39.7192 17.3158 40.0112 17.6924C40.3075 18.0648 40.7116 18.251 41.2236 18.251C41.943 18.251 42.527 18.0479 42.9756 17.6416L43.4199 18.3716H43.4136C42.8973 18.8794 42.1673 19.1333 41.2236 19.1333ZM45.2163 11.3384H46.3525V12.8301H47.5205V13.668H46.3525V17.4194C46.3525 17.9442 46.5705 18.2065 47.0063 18.2065C47.1418 18.2065 47.2814 18.1812 47.4253 18.1304L47.5713 18.8984C47.3682 19.055 47.0825 19.1333 46.7144 19.1333C46.2404 19.1333 45.8722 18.9915 45.6099 18.708C45.3475 18.4245 45.2163 17.995 45.2163 17.4194V13.668H44.2388V12.8301H45.2163V11.3384ZM52.7002 15.1597C52.7002 14.6942 52.5796 14.3197 52.3384 14.0361C52.0972 13.7484 51.7502 13.6045 51.2974 13.6045C50.925 13.6045 50.6034 13.7611 50.3325 14.0742C50.0659 14.3874 49.9009 14.7873 49.8374 15.2739L49.8501 15.3057H52.7002V15.1597ZM51.4688 19.1333C50.6097 19.1333 49.9242 18.8498 49.4121 18.2827C48.9043 17.7157 48.6504 16.9688 48.6504 16.042V15.7881C48.6504 14.9206 48.9085 14.1927 49.4248 13.6045C49.9453 13.012 50.5695 12.7158 51.2974 12.7158C52.1183 12.7158 52.7446 12.9634 53.1763 13.4585C53.6121 13.9494 53.8301 14.6243 53.8301 15.4834V16.188H49.8184L49.7993 16.2134C49.812 16.8228 49.9644 17.3158 50.2563 17.6924C50.5526 18.0648 50.9567 18.251 51.4688 18.251C52.1882 18.251 52.7721 18.0479 53.2207 17.6416L53.665 18.3716H53.6587C53.1424 18.8794 52.4124 19.1333 51.4688 19.1333Z" fill="white"/>
<rect width="25" height="25" rx="5" transform="matrix(-1 0 0 1 96 3)" fill="#D94747"/>
<path fill-rule="evenodd" clip-rule="evenodd" d="M82.25 8.58337H85.75C86.3943 8.58337 86.9166 9.10571 86.9166 9.75004V10.3334H88.6666C89.311 10.3334 89.8333 10.8557 89.8333 11.5V12.6667C89.8333 13.311 89.311 13.8334 88.6666 13.8334H88.6199L88.0833 20.25C88.0833 20.8944 87.561 21.4167 86.9166 21.4167H81.0833C80.439 21.4167 79.9166 20.8944 79.9186 20.2985L79.3799 13.8334H79.3333C78.689 13.8334 78.1666 13.311 78.1666 12.6667V11.5C78.1666 10.8557 78.689 10.3334 79.3333 10.3334H81.0833V9.75004C81.0833 9.10571 81.6056 8.58337 82.25 8.58337ZM79.3333 11.5H81.0833H86.9166H88.6666V12.6667H79.3333V11.5ZM80.5504 13.8334H87.4493L86.9186 20.2016L86.9166 20.25H81.0833L80.5504 13.8334ZM85.75 9.75004V10.3334H82.25V9.75004H85.75Z" fill="white"/>
</svg>
