<svg width="14" height="14" viewBox="0 0 14 14" fill="none" xmlns="http://www.w3.org/2000/svg">
<path fill-rule="evenodd" clip-rule="evenodd" d="M12.8333 11.6667V7.58334H11.6666V11.6667H2.33329V2.33334H6.41663V1.16667H2.33329C1.68896 1.16667 1.16663 1.68901 1.16663 2.33334V11.6667C1.16663 12.311 1.68896 12.8333 2.33329 12.8333H11.6666C12.311 12.8333 12.8333 12.311 12.8333 11.6667ZM11.1872 1.58867C10.9198 1.31917 10.5537 1.16667 10.1717 1.16667C9.79025 1.16667 9.42452 1.31882 9.1556 1.58937L4.27375 6.47117C3.83751 6.85553 3.55155 7.42749 3.50185 8.0426L3.49996 9.91803V10.5014H5.91181C6.57348 10.456 7.15106 10.1672 7.55851 9.6972L12.4127 4.84508C12.682 4.57576 12.8333 4.2105 12.8333 3.82963C12.8333 3.44877 12.682 3.0835 12.4127 2.81419L11.1872 1.58867ZM5.87062 9.33615C6.18225 9.31409 6.47233 9.16906 6.70526 8.90262L10.2414 5.36651L8.6347 3.75975L5.07269 7.3206C4.83635 7.52963 4.69014 7.82206 4.66663 8.08957V9.33506L5.87062 9.33615ZM9.45979 2.93492L11.0663 4.54156L11.5878 4.02012C11.6383 3.9696 11.6667 3.90108 11.6667 3.82963C11.6667 3.75819 11.6383 3.68967 11.5878 3.63915L10.3606 2.412C10.3107 2.36166 10.2427 2.33334 10.1717 2.33334C10.1008 2.33334 10.0328 2.36166 9.98288 2.412L9.45979 2.93492Z" fill="black"/>
</svg>
