<svg width="98" height="24" viewBox="0 0 98 24" fill="none" xmlns="http://www.w3.org/2000/svg">
<path fill-rule="evenodd" clip-rule="evenodd" d="M82.0001 13L92.5859 13L89.293 16.2929L90.7072 17.7071L96.4143 12L90.7072 6.29289L89.293 7.70711L92.5859 11L82.0001 11L82.0001 13ZM78.0001 21L87.0001 21L87.0001 19L78.0001 19L78.0001 5L87.0001 5L87.0001 3L78.0001 3C76.8955 3 76.0001 3.89543 76.0001 5L76.0001 19C76.0001 20.1046 76.8955 21 78.0001 21Z" fill="#74787D"/>
<path d="M3.7793 16.8818H9.37793V19H1.14258V6.20312H3.7793V16.8818ZM20.8477 12.8916C20.8477 14.1514 20.625 15.2559 20.1797 16.2051C19.7344 17.1543 19.0957 17.8867 18.2637 18.4023C17.4375 18.918 16.4883 19.1758 15.416 19.1758C14.3555 19.1758 13.4092 18.9209 12.5771 18.4111C11.7451 17.9014 11.1006 17.1748 10.6436 16.2314C10.1865 15.2822 9.95508 14.1924 9.94922 12.9619V12.3291C9.94922 11.0693 10.1748 9.96191 10.626 9.00684C11.083 8.0459 11.7246 7.31055 12.5508 6.80078C13.3828 6.28516 14.332 6.02734 15.3984 6.02734C16.4648 6.02734 17.4111 6.28516 18.2373 6.80078C19.0693 7.31055 19.7109 8.0459 20.1621 9.00684C20.6191 9.96191 20.8477 11.0664 20.8477 12.3203V12.8916ZM18.1758 12.3115C18.1758 10.9697 17.9355 9.9502 17.4551 9.25293C16.9746 8.55566 16.2891 8.20703 15.3984 8.20703C14.5137 8.20703 13.8311 8.55273 13.3506 9.24414C12.8701 9.92969 12.627 10.9375 12.6211 12.2676V12.8916C12.6211 14.1982 12.8613 15.2119 13.3418 15.9326C13.8223 16.6533 14.5137 17.0137 15.416 17.0137C16.3008 17.0137 16.9805 16.668 17.4551 15.9766C17.9297 15.2793 18.1699 14.2656 18.1758 12.9355V12.3115ZM32.8887 17.3828C32.4141 17.9512 31.7432 18.3936 30.876 18.71C30.0088 19.0205 29.0479 19.1758 27.9932 19.1758C26.8857 19.1758 25.9131 18.9355 25.0752 18.4551C24.2432 17.9688 23.5986 17.2656 23.1416 16.3457C22.6904 15.4258 22.459 14.3447 22.4473 13.1025V12.2324C22.4473 10.9551 22.6611 9.85059 23.0889 8.91895C23.5225 7.98145 24.1436 7.2666 24.9521 6.77441C25.7666 6.27637 26.7188 6.02734 27.8086 6.02734C29.3262 6.02734 30.5127 6.39062 31.3682 7.11719C32.2236 7.83789 32.7305 8.88965 32.8887 10.2725H30.3223C30.2051 9.54004 29.9443 9.00391 29.54 8.66406C29.1416 8.32422 28.5908 8.1543 27.8877 8.1543C26.9912 8.1543 26.3086 8.49121 25.8398 9.16504C25.3711 9.83887 25.1338 10.8408 25.1279 12.1709V12.9883C25.1279 14.3301 25.3828 15.3438 25.8926 16.0293C26.4023 16.7148 27.1494 17.0576 28.1338 17.0576C29.124 17.0576 29.8301 16.8467 30.252 16.4248V14.2188H27.8525V12.2764H32.8887V17.3828ZM45.5449 12.8916C45.5449 14.1514 45.3223 15.2559 44.877 16.2051C44.4316 17.1543 43.793 17.8867 42.9609 18.4023C42.1348 18.918 41.1855 19.1758 40.1133 19.1758C39.0527 19.1758 38.1064 18.9209 37.2744 18.4111C36.4424 17.9014 35.7979 17.1748 35.3408 16.2314C34.8838 15.2822 34.6523 14.1924 34.6465 12.9619V12.3291C34.6465 11.0693 34.8721 9.96191 35.3232 9.00684C35.7803 8.0459 36.4219 7.31055 37.248 6.80078C38.0801 6.28516 39.0293 6.02734 40.0957 6.02734C41.1621 6.02734 42.1084 6.28516 42.9346 6.80078C43.7666 7.31055 44.4082 8.0459 44.8594 9.00684C45.3164 9.96191 45.5449 11.0664 45.5449 12.3203V12.8916ZM42.873 12.3115C42.873 10.9697 42.6328 9.9502 42.1523 9.25293C41.6719 8.55566 40.9863 8.20703 40.0957 8.20703C39.2109 8.20703 38.5283 8.55273 38.0479 9.24414C37.5674 9.92969 37.3242 10.9375 37.3184 12.2676V12.8916C37.3184 14.1982 37.5586 15.2119 38.0391 15.9326C38.5195 16.6533 39.2109 17.0137 40.1133 17.0137C40.998 17.0137 41.6777 16.668 42.1523 15.9766C42.627 15.2793 42.8672 14.2656 42.873 12.9355V12.3115ZM57.1465 6.20312V14.6318C57.1465 16.0322 56.707 17.1396 55.8281 17.9541C54.9551 18.7686 53.7598 19.1758 52.2422 19.1758C50.748 19.1758 49.5615 18.7803 48.6826 17.9893C47.8037 17.1982 47.3555 16.1113 47.3379 14.7285V6.20312H49.9746V14.6494C49.9746 15.4873 50.1738 16.0996 50.5723 16.4863C50.9766 16.8672 51.5332 17.0576 52.2422 17.0576C53.7246 17.0576 54.4775 16.2783 54.501 14.7197V6.20312H57.1465ZM68.9414 8.33887H65.0215V19H62.3848V8.33887H58.5176V6.20312H68.9414V8.33887Z" fill="#74787D"/>
</svg>
