<svg width="99" height="30" viewBox="0 0 99 30" fill="none" xmlns="http://www.w3.org/2000/svg">
<rect width="99" height="30" rx="5" transform="matrix(-1 0 0 1 99 0)" fill="#DA22DE"/>
<path d="M26.2466 15.3945H24.1519V19H23.0283V10.6846H26.0371C26.9512 10.6846 27.6473 10.8856 28.1255 11.2876C28.6037 11.6896 28.8428 12.2778 28.8428 13.0522C28.8428 13.9155 28.4069 14.5376 27.5352 14.9185C28.3942 15.1978 28.8237 15.8516 28.8237 16.8799V17.6606C28.8237 18.2277 28.9507 18.6276 29.2046 18.8604V19H28.043C27.8102 18.7926 27.6938 18.3441 27.6938 17.6543V16.8926C27.6938 16.4398 27.5627 16.078 27.3003 15.8071C27.0379 15.5321 26.6867 15.3945 26.2466 15.3945ZM24.1519 11.5669V14.5122H25.9229C26.5576 14.5122 27.0146 14.3937 27.2939 14.1567C27.5775 13.9155 27.7192 13.5431 27.7192 13.0396C27.7192 12.0578 27.1585 11.5669 26.0371 11.5669H24.1519ZM34.3652 15.1597C34.3652 14.6942 34.2446 14.3197 34.0034 14.0361C33.7622 13.7484 33.4152 13.6045 32.9624 13.6045C32.59 13.6045 32.2684 13.7611 31.9976 14.0742C31.731 14.3874 31.5659 14.7873 31.5024 15.2739L31.5151 15.3057H34.3652V15.1597ZM33.1338 19.1333C32.2747 19.1333 31.5892 18.8498 31.0771 18.2827C30.5693 17.7157 30.3154 16.9688 30.3154 16.042V15.7881C30.3154 14.9206 30.5736 14.1927 31.0898 13.6045C31.6104 13.012 32.2345 12.7158 32.9624 12.7158C33.7834 12.7158 34.4097 12.9634 34.8413 13.4585C35.2772 13.9494 35.4951 14.6243 35.4951 15.4834V16.188H31.4834L31.4644 16.2134C31.4771 16.8228 31.6294 17.3158 31.9214 17.6924C32.2176 18.0648 32.6217 18.251 33.1338 18.251C33.8532 18.251 34.4372 18.0479 34.8857 17.6416L35.3301 18.3716H35.3237C34.8075 18.8794 34.0775 19.1333 33.1338 19.1333ZM37.2915 12.8174L38.7578 17.1782L38.853 17.6099H38.8848L38.9927 17.1782L40.4209 12.8174H41.5635L39.291 19H38.4404L36.1362 12.8174H37.2915ZM46.375 15.1597C46.375 14.6942 46.2544 14.3197 46.0132 14.0361C45.772 13.7484 45.425 13.6045 44.9722 13.6045C44.5998 13.6045 44.2782 13.7611 44.0073 14.0742C43.7407 14.3874 43.5757 14.7873 43.5122 15.2739L43.5249 15.3057H46.375V15.1597ZM45.1436 19.1333C44.2845 19.1333 43.599 18.8498 43.0869 18.2827C42.5791 17.7157 42.3252 16.9688 42.3252 16.042V15.7881C42.3252 14.9206 42.5833 14.1927 43.0996 13.6045C43.6201 13.012 44.2443 12.7158 44.9722 12.7158C45.7931 12.7158 46.4194 12.9634 46.8511 13.4585C47.2869 13.9494 47.5049 14.6243 47.5049 15.4834V16.188H43.4932L43.4741 16.2134C43.4868 16.8228 43.6392 17.3158 43.9312 17.6924C44.2274 18.0648 44.6315 18.251 45.1436 18.251C45.863 18.251 46.4469 18.0479 46.8955 17.6416L47.3398 18.3716H47.3335C46.8172 18.8794 46.0872 19.1333 45.1436 19.1333ZM49.9043 19.0063H48.7808V12.8237H49.7837L49.8916 13.7251C50.2682 13.0438 50.7803 12.7031 51.4277 12.7031C51.5801 12.7031 51.724 12.7243 51.8594 12.7666L51.707 13.8203L51.1294 13.7822C50.5496 13.7822 50.1413 14.0509 49.9043 14.5884V19.0063ZM53.2495 11.3384H54.3857V12.8301H55.5537V13.668H54.3857V17.4194C54.3857 17.9442 54.6037 18.2065 55.0396 18.2065C55.175 18.2065 55.3146 18.1812 55.4585 18.1304L55.6045 18.8984C55.4014 19.055 55.1157 19.1333 54.7476 19.1333C54.2736 19.1333 53.9054 18.9915 53.6431 18.708C53.3807 18.4245 53.2495 17.995 53.2495 17.4194V13.668H52.272V12.8301H53.2495V11.3384Z" fill="white"/>
<rect width="25" height="25" rx="5" transform="matrix(-1 0 0 1 96 3)" fill="#B01AB4"/>
<path fill-rule="evenodd" clip-rule="evenodd" d="M79.6448 12.25H82.5V13.75H77.25V8.5H78.75V10.9528C80.0438 9.38688 81.8968 8.5 84 8.5C88.1421 8.5 91.5 11.8579 91.5 16C91.5 20.1421 88.1421 23.5 84 23.5C79.8579 23.5 76.5 20.1421 76.5 16H78C78 19.3137 80.6863 22 84 22C87.3137 22 90 19.3137 90 16C90 12.6863 87.3137 10 84 10C82.2048 10 80.6652 10.809 79.6448 12.25Z" fill="white"/>
</svg>
