<svg width="99" height="30" viewBox="0 0 99 30" fill="none" xmlns="http://www.w3.org/2000/svg">
<rect width="99" height="30" rx="5" transform="matrix(-1 0 0 1 99 0)" fill="url(#paint0_linear)"/>
<path d="M12.6694 16.6196C12.6694 17.1401 12.8577 17.5422 13.2344 17.8257C13.6152 18.1092 14.0998 18.251 14.688 18.251C15.2762 18.251 15.7354 18.1325 16.0654 17.8955C16.3955 17.6543 16.5605 17.3327 16.5605 16.9307C16.5605 16.5286 16.4124 16.2007 16.1162 15.9468C15.8242 15.6929 15.3228 15.4813 14.6118 15.312C12.7456 14.8634 11.8125 14.0425 11.8125 12.8491C11.8125 12.1932 12.0791 11.6515 12.6123 11.2241C13.1455 10.7925 13.8438 10.5767 14.707 10.5767C15.5745 10.5767 16.2834 10.82 16.8335 11.3066C17.3836 11.7933 17.6481 12.3773 17.627 13.0586L17.6143 13.0967H16.5415C16.5415 12.5973 16.3786 12.1995 16.0527 11.9033C15.7269 11.6071 15.2762 11.459 14.7007 11.459C14.1294 11.459 13.6914 11.5838 13.3867 11.8335C13.0863 12.0789 12.936 12.3984 12.936 12.792C12.936 13.1813 13.0968 13.4966 13.4185 13.7378C13.7401 13.9748 14.2669 14.1864 14.999 14.3726C16.7891 14.8254 17.6841 15.6696 17.6841 16.9053C17.6841 17.5781 17.4111 18.1177 16.8652 18.5239C16.3193 18.9302 15.6021 19.1333 14.7134 19.1333C14.1506 19.1333 13.63 19.036 13.1519 18.8413C12.6779 18.6424 12.2949 18.3504 12.0029 17.9653C11.7109 17.5802 11.5713 17.1423 11.584 16.6514L11.5967 16.6196H12.6694ZM20.877 19.1333C20.2337 19.1333 19.7428 18.9704 19.4043 18.6445C19.0658 18.3187 18.8965 17.8617 18.8965 17.2734C18.8965 16.6852 19.1335 16.224 19.6074 15.8896C20.0814 15.5553 20.7331 15.3882 21.5625 15.3882H22.7812V14.7788C22.7812 14.4149 22.6691 14.1292 22.4448 13.9219C22.2248 13.7103 21.9243 13.6045 21.5435 13.6045C21.1668 13.6045 20.8643 13.6955 20.6357 13.8774C20.4072 14.0552 20.293 14.2773 20.293 14.5439H19.2202L19.2075 14.5122C19.1864 14.0467 19.4022 13.632 19.855 13.2681C20.312 12.8999 20.8918 12.7158 21.5942 12.7158C22.3009 12.7158 22.8638 12.8978 23.2827 13.2617C23.7017 13.6214 23.9111 14.1313 23.9111 14.7915V17.7686C23.9111 18.2467 23.964 18.6615 24.0698 19.0127H22.9082C22.8278 18.6191 22.7855 18.3102 22.7812 18.0859C22.5612 18.3991 22.2819 18.653 21.9434 18.8477C21.609 19.0381 21.2536 19.1333 20.877 19.1333ZM20.0327 17.2988H20.0264C20.0264 17.5781 20.1131 17.7961 20.2866 17.9526C20.4601 18.1092 20.7288 18.1875 21.0928 18.1875C21.4567 18.1875 21.8037 18.0859 22.1338 17.8828C22.4681 17.6755 22.686 17.4342 22.7876 17.1592V16.1499H21.5308C21.0822 16.1499 20.7204 16.262 20.4453 16.4863C20.1702 16.7064 20.0327 16.9772 20.0327 17.2988ZM26.063 12.8174L27.5293 17.1782L27.6245 17.6099H27.6562L27.7642 17.1782L29.1924 12.8174H30.335L28.0625 19H27.2119L24.9077 12.8174H26.063ZM35.1465 15.1597C35.1465 14.6942 35.0259 14.3197 34.7847 14.0361C34.5435 13.7484 34.1965 13.6045 33.7437 13.6045C33.3713 13.6045 33.0496 13.7611 32.7788 14.0742C32.5122 14.3874 32.3472 14.7873 32.2837 15.2739L32.2964 15.3057H35.1465V15.1597ZM33.915 19.1333C33.056 19.1333 32.3704 18.8498 31.8584 18.2827C31.3506 17.7157 31.0967 16.9688 31.0967 16.042V15.7881C31.0967 14.9206 31.3548 14.1927 31.8711 13.6045C32.3916 13.012 33.0158 12.7158 33.7437 12.7158C34.5646 12.7158 35.1909 12.9634 35.6226 13.4585C36.0584 13.9494 36.2764 14.6243 36.2764 15.4834V16.188H32.2646L32.2456 16.2134C32.2583 16.8228 32.4106 17.3158 32.7026 17.6924C32.9989 18.0648 33.403 18.251 33.915 18.251C34.6344 18.251 35.2184 18.0479 35.667 17.6416L36.1113 18.3716H36.105C35.5887 18.8794 34.8587 19.1333 33.915 19.1333ZM42.0654 12.8174V19H40.9419V12.8174H42.0654ZM42.0654 10.0879V11.2368H40.9419V10.0879H42.0654ZM44.1538 11.3384H45.29V12.8301H46.458V13.668H45.29V17.4194C45.29 17.9442 45.508 18.2065 45.9438 18.2065C46.0793 18.2065 46.2189 18.1812 46.3628 18.1304L46.5088 18.8984C46.3057 19.055 46.02 19.1333 45.6519 19.1333C45.1779 19.1333 44.8097 18.9915 44.5474 18.708C44.285 18.4245 44.1538 17.995 44.1538 17.4194V13.668H43.1763V12.8301H44.1538V11.3384ZM51.6377 15.1597C51.6377 14.6942 51.5171 14.3197 51.2759 14.0361C51.0347 13.7484 50.6877 13.6045 50.2349 13.6045C49.8625 13.6045 49.5409 13.7611 49.27 14.0742C49.0034 14.3874 48.8384 14.7873 48.7749 15.2739L48.7876 15.3057H51.6377V15.1597ZM50.4062 19.1333C49.5472 19.1333 48.8617 18.8498 48.3496 18.2827C47.8418 17.7157 47.5879 16.9688 47.5879 16.042V15.7881C47.5879 14.9206 47.846 14.1927 48.3623 13.6045C48.8828 13.012 49.507 12.7158 50.2349 12.7158C51.0558 12.7158 51.6821 12.9634 52.1138 13.4585C52.5496 13.9494 52.7676 14.6243 52.7676 15.4834V16.188H48.7559L48.7368 16.2134C48.7495 16.8228 48.9019 17.3158 49.1938 17.6924C49.4901 18.0648 49.8942 18.251 50.4062 18.251C51.1257 18.251 51.7096 18.0479 52.1582 17.6416L52.6025 18.3716H52.5962C52.0799 18.8794 51.3499 19.1333 50.4062 19.1333ZM55.167 19H54.0498V12.8174H55.0527L55.1353 13.6299C55.5584 13.012 56.1847 12.7031 57.0142 12.7031C57.8478 12.7031 58.4128 13.084 58.709 13.8457C59.1364 13.084 59.7669 12.7031 60.6006 12.7031C61.248 12.7031 61.7495 12.9232 62.105 13.3633C62.4604 13.7992 62.6382 14.4466 62.6382 15.3057V19H61.5146V15.293C61.5146 14.6963 61.4131 14.2689 61.21 14.0107C61.0068 13.7484 60.7021 13.6172 60.2959 13.6172C59.8939 13.6172 59.5723 13.7484 59.3311 14.0107C59.0941 14.2689 58.9544 14.6074 58.9121 15.0264V19H57.7759V15.293C57.7759 14.7174 57.6701 14.2943 57.4585 14.0234C57.2511 13.7526 56.9401 13.6172 56.5254 13.6172C55.8737 13.6172 55.4209 13.8859 55.167 14.4233V19Z" fill="white"/>
<rect width="25" height="25" rx="5" transform="matrix(-1 0 0 1 96 3)" fill="url(#paint1_linear)"/>
<path fill-rule="evenodd" clip-rule="evenodd" d="M82.2803 18.4697L89.25 11.5L90.3107 12.5607L82.2803 20.591L78 16.3107L79.0607 15.25L82.2803 18.4697Z" fill="white"/>
<defs>
<linearGradient id="paint0_linear" x1="0" y1="0" x2="0" y2="30" gradientUnits="userSpaceOnUse">
<stop offset="0.9999" stop-color="#29CB97"/>
<stop offset="1" stop-color="#4072EE"/>
</linearGradient>
<linearGradient id="paint1_linear" x1="0" y1="0" x2="0" y2="25" gradientUnits="userSpaceOnUse">
<stop offset="0.9999" stop-color="#00A671"/>
<stop offset="1" stop-color="#4072EE"/>
</linearGradient>
</defs>
</svg>
