<svg width="58" height="20" viewBox="0 0 58 20" fill="none" xmlns="http://www.w3.org/2000/svg">
<rect width="58" height="20" rx="5" transform="matrix(-1 0 0 1 58 0)" fill="#29CB97"/>
<path d="M13.8208 6.96387V13.2534H17.1509V14H12.8701V6.96387H13.8208ZM19.2241 6.96387V14H18.2681V6.96387H19.2241ZM21.5659 11.9858C21.5659 12.4263 21.7253 12.7664 22.0439 13.0063C22.3662 13.2463 22.7762 13.3662 23.2739 13.3662C23.7716 13.3662 24.1602 13.266 24.4395 13.0654C24.7188 12.8613 24.8584 12.5892 24.8584 12.249C24.8584 11.9089 24.7331 11.6313 24.4824 11.4165C24.2354 11.2017 23.811 11.0226 23.2095 10.8794C21.6304 10.4998 20.8408 9.80518 20.8408 8.79541C20.8408 8.2404 21.0664 7.78206 21.5176 7.42041C21.9688 7.05518 22.5596 6.87256 23.29 6.87256C24.0241 6.87256 24.6239 7.07845 25.0894 7.49023C25.5549 7.90202 25.7786 8.39616 25.7607 8.97266L25.75 9.00488H24.8423C24.8423 8.58236 24.7044 8.24577 24.4287 7.99512C24.153 7.74447 23.7716 7.61914 23.2847 7.61914C22.8013 7.61914 22.4307 7.72477 22.1729 7.93604C21.9186 8.14372 21.7915 8.41406 21.7915 8.74707C21.7915 9.0765 21.9276 9.34326 22.1997 9.54736C22.4718 9.74788 22.9176 9.92692 23.5371 10.0845C25.0518 10.4676 25.8091 11.182 25.8091 12.2275C25.8091 12.7969 25.5781 13.2534 25.1162 13.5972C24.6543 13.9409 24.0474 14.1128 23.2954 14.1128C22.8192 14.1128 22.3787 14.0304 21.9741 13.8657C21.5731 13.6974 21.249 13.4504 21.002 13.1245C20.7549 12.7987 20.6367 12.4281 20.6475 12.0127L20.6582 11.9858H21.5659ZM31.9644 6.96387V7.71045H29.7031V14H28.7524V7.71045H26.4966V6.96387H31.9644ZM37.1797 9.98779V10.7344H33.9517V13.2534H37.6685V14H33.001V6.96387H37.6201V7.71045H33.9517V9.98779H37.1797ZM40.9502 7.71045H39.7417V13.2534H40.9502C41.5983 13.2534 42.1104 13.0439 42.4863 12.625C42.8659 12.2025 43.0557 11.6493 43.0557 10.9653V9.99316C43.0557 9.31283 42.8659 8.76318 42.4863 8.34424C42.1068 7.92171 41.5947 7.71045 40.9502 7.71045ZM40.9502 14H38.791V6.96387H40.9502C41.874 6.96387 42.6134 7.24495 43.1685 7.80713C43.7271 8.36572 44.0063 9.09798 44.0063 10.0039V10.9653C44.0063 11.8713 43.7271 12.6035 43.1685 13.1621C42.6134 13.7207 41.874 14 40.9502 14Z" fill="white"/>
</svg>
