<svg width="57" height="20" viewBox="0 0 57 20" fill="none" xmlns="http://www.w3.org/2000/svg">
<rect width="57" height="20" rx="5" transform="matrix(-1 0 0 1 57 0)" fill="#FEC400"/>
<path d="M7.8208 7.71045V10.4336H9.56104C10.0265 10.4336 10.3792 10.3101 10.6191 10.063C10.8626 9.81592 10.9844 9.48828 10.9844 9.08008C10.9844 8.67188 10.8626 8.34245 10.6191 8.0918C10.3757 7.83757 10.0229 7.71045 9.56104 7.71045H7.8208ZM9.56104 11.1748H7.8208V14H6.87012V6.96387H9.56104C10.3058 6.96387 10.8877 7.15544 11.3066 7.53857C11.7256 7.91813 11.9351 8.43197 11.9351 9.08008C11.9351 9.72461 11.7256 10.2349 11.3066 10.6108C10.8913 10.9868 10.3094 11.1748 9.56104 11.1748ZM17.3975 9.98779V10.7344H14.1694V13.2534H17.8862V14H13.2188V6.96387H17.8379V7.71045H14.1694V9.98779H17.3975ZM24.3315 6.96387V14H23.3809L19.9917 8.55908L19.9595 8.56445V14H19.0088V6.96387H19.9595L23.3486 12.394L23.3809 12.3833V6.96387H24.3315ZM28.2363 7.71045H27.0278V13.2534H28.2363C28.8844 13.2534 29.3965 13.0439 29.7725 12.625C30.152 12.2025 30.3418 11.6493 30.3418 10.9653V9.99316C30.3418 9.31283 30.152 8.76318 29.7725 8.34424C29.3929 7.92171 28.8809 7.71045 28.2363 7.71045ZM28.2363 14H26.0771V6.96387H28.2363C29.1602 6.96387 29.8996 7.24495 30.4546 7.80713C31.0132 8.36572 31.2925 9.09798 31.2925 10.0039V10.9653C31.2925 11.8713 31.0132 12.6035 30.4546 13.1621C29.8996 13.7207 29.1602 14 28.2363 14ZM33.6021 6.96387V14H32.646V6.96387H33.6021ZM40.7241 6.96387V14H39.7734L36.3843 8.55908L36.3521 8.56445V14H35.4014V6.96387H36.3521L39.7412 12.394L39.7734 12.3833V6.96387H40.7241ZM47.5723 10.498V13.0708C47.3825 13.3608 47.0745 13.6061 46.6484 13.8066C46.2223 14.0072 45.7031 14.1074 45.0908 14.1074C44.2422 14.1074 43.5439 13.8389 42.9961 13.3018C42.4518 12.7611 42.1797 12.0646 42.1797 11.2124V9.76221C42.1797 8.90283 42.4339 8.20638 42.9424 7.67285C43.4544 7.13574 44.1133 6.86719 44.9189 6.86719C45.7246 6.86719 46.3602 7.06234 46.8257 7.45264C47.2948 7.84294 47.5329 8.35856 47.54 8.99951L47.5293 9.02637H46.6216C46.5894 8.60026 46.4282 8.26009 46.1382 8.00586C45.8517 7.74805 45.4435 7.61914 44.9136 7.61914C44.3872 7.61914 43.9593 7.81966 43.6299 8.2207C43.3005 8.61816 43.1357 9.13021 43.1357 9.75684V11.2178C43.1357 11.8444 43.3184 12.36 43.6836 12.7646C44.0488 13.1657 44.5179 13.3662 45.0908 13.3662C45.4668 13.3662 45.7855 13.3179 46.0469 13.2212C46.3083 13.1209 46.498 12.9956 46.6162 12.8452V11.2446H45.0747V10.498H47.5723Z" fill="white"/>
</svg>
