<svg width="58" height="20" viewBox="0 0 58 20" fill="none" xmlns="http://www.w3.org/2000/svg">
<rect width="58" height="20" rx="5" transform="matrix(-1 0 0 1 58 0)" fill="#FF5353"/>
<path d="M17.4126 11.9858C17.4126 12.4263 17.5719 12.7664 17.8906 13.0063C18.2129 13.2463 18.6229 13.3662 19.1206 13.3662C19.6183 13.3662 20.0068 13.266 20.2861 13.0654C20.5654 12.8613 20.7051 12.5892 20.7051 12.249C20.7051 11.9089 20.5798 11.6313 20.3291 11.4165C20.082 11.2017 19.6577 11.0226 19.0562 10.8794C17.4771 10.4998 16.6875 9.80518 16.6875 8.79541C16.6875 8.2404 16.9131 7.78206 17.3643 7.42041C17.8154 7.05518 18.4062 6.87256 19.1367 6.87256C19.8708 6.87256 20.4705 7.07845 20.936 7.49023C21.4015 7.90202 21.6253 8.39616 21.6074 8.97266L21.5967 9.00488H20.689C20.689 8.58236 20.5511 8.24577 20.2754 7.99512C19.9997 7.74447 19.6183 7.61914 19.1313 7.61914C18.6479 7.61914 18.2773 7.72477 18.0195 7.93604C17.7653 8.14372 17.6382 8.41406 17.6382 8.74707C17.6382 9.0765 17.7743 9.34326 18.0464 9.54736C18.3185 9.74788 18.7643 9.92692 19.3838 10.0845C20.8984 10.4676 21.6558 11.182 21.6558 12.2275C21.6558 12.7969 21.4248 13.2534 20.9629 13.5972C20.501 13.9409 19.894 14.1128 19.1421 14.1128C18.6659 14.1128 18.2254 14.0304 17.8208 13.8657C17.4198 13.6974 17.0957 13.4504 16.8486 13.1245C16.6016 12.7987 16.4834 12.4281 16.4941 12.0127L16.5049 11.9858H17.4126ZM27.4243 11.1211V9.85889C27.4243 9.20361 27.2489 8.67367 26.8979 8.26904C26.547 7.86084 26.0887 7.65674 25.5229 7.65674C24.9572 7.65674 24.5078 7.86084 24.1748 8.26904C23.8418 8.67725 23.6753 9.20719 23.6753 9.85889V11.1211C23.6753 11.7799 23.84 12.3135 24.1694 12.7217C24.5024 13.1299 24.9536 13.334 25.5229 13.334C26.0923 13.334 26.5506 13.1317 26.8979 12.7271C27.2489 12.3188 27.4243 11.7835 27.4243 11.1211ZM28.375 9.86963V11.1211C28.375 11.9912 28.1082 12.7074 27.5747 13.2695C27.0412 13.8317 26.3555 14.1128 25.5176 14.1128C24.6833 14.1128 24.0083 13.8317 23.4927 13.2695C22.9806 12.7074 22.7246 11.9912 22.7246 11.1211V9.86963C22.7246 8.99951 22.9806 8.28337 23.4927 7.72119C24.0083 7.15544 24.6833 6.87256 25.5176 6.87256C26.3555 6.87256 27.0412 7.15365 27.5747 7.71582C28.1082 8.27799 28.375 8.99593 28.375 9.86963ZM30.7437 6.96387V13.2534H34.0737V14H29.793V6.96387H30.7437ZM37.3018 7.71045H36.0933V13.2534H37.3018C37.9499 13.2534 38.4619 13.0439 38.8379 12.625C39.2174 12.2025 39.4072 11.6493 39.4072 10.9653V9.99316C39.4072 9.31283 39.2174 8.76318 38.8379 8.34424C38.4583 7.92171 37.9463 7.71045 37.3018 7.71045ZM37.3018 14H35.1426V6.96387H37.3018C38.2256 6.96387 38.965 7.24495 39.52 7.80713C40.0786 8.36572 40.3579 9.09798 40.3579 10.0039V10.9653C40.3579 11.8713 40.0786 12.6035 39.52 13.1621C38.965 13.7207 38.2256 14 37.3018 14Z" fill="white"/>
</svg>
