<svg width="58" height="20" viewBox="0 0 58 20" fill="none" xmlns="http://www.w3.org/2000/svg">
<rect width="58" height="20" rx="5" transform="matrix(-1 0 0 1 58 0)" fill="#E5E9F2"/>
<path d="M10.0596 6.97461H11.021V11.7441C11.021 12.4997 10.7757 13.0833 10.2852 13.4951C9.79818 13.9069 9.15007 14.1128 8.34082 14.1128C7.53158 14.1128 6.89062 13.9069 6.41797 13.4951C5.94531 13.0798 5.70898 12.4961 5.70898 11.7441V6.97461H6.66504V11.7441C6.66504 12.2669 6.81185 12.668 7.10547 12.9473C7.40267 13.2266 7.81266 13.3662 8.33545 13.3662C8.85824 13.3662 9.27539 13.2266 9.58691 12.9473C9.90202 12.668 10.0596 12.2669 10.0596 11.7441V6.97461ZM17.896 6.96387V14H16.9453L13.5562 8.55908L13.5239 8.56445V14H12.5732V6.96387H13.5239L16.9131 12.394L16.9453 12.3833V6.96387H17.896ZM20.5923 6.96387V13.2534H23.9224V14H19.6416V6.96387H20.5923ZM25.9956 6.96387V14H25.0396V6.96387H25.9956ZM28.3374 11.9858C28.3374 12.4263 28.4967 12.7664 28.8154 13.0063C29.1377 13.2463 29.5477 13.3662 30.0454 13.3662C30.5431 13.3662 30.9316 13.266 31.2109 13.0654C31.4902 12.8613 31.6299 12.5892 31.6299 12.249C31.6299 11.9089 31.5046 11.6313 31.2539 11.4165C31.0068 11.2017 30.5825 11.0226 29.981 10.8794C28.4019 10.4998 27.6123 9.80518 27.6123 8.79541C27.6123 8.2404 27.8379 7.78206 28.2891 7.42041C28.7402 7.05518 29.3311 6.87256 30.0615 6.87256C30.7956 6.87256 31.3953 7.07845 31.8608 7.49023C32.3263 7.90202 32.5501 8.39616 32.5322 8.97266L32.5215 9.00488H31.6138C31.6138 8.58236 31.4759 8.24577 31.2002 7.99512C30.9245 7.74447 30.5431 7.61914 30.0562 7.61914C29.5728 7.61914 29.2021 7.72477 28.9443 7.93604C28.6901 8.14372 28.563 8.41406 28.563 8.74707C28.563 9.0765 28.6991 9.34326 28.9712 9.54736C29.2433 9.74788 29.6891 9.92692 30.3086 10.0845C31.8232 10.4676 32.5806 11.182 32.5806 12.2275C32.5806 12.7969 32.3496 13.2534 31.8877 13.5972C31.4258 13.9409 30.8188 14.1128 30.0669 14.1128C29.5907 14.1128 29.1502 14.0304 28.7456 13.8657C28.3446 13.6974 28.0205 13.4504 27.7734 13.1245C27.5264 12.7987 27.4082 12.4281 27.4189 12.0127L27.4297 11.9858H28.3374ZM38.7358 6.96387V7.71045H36.4746V14H35.5239V7.71045H33.2681V6.96387H38.7358ZM43.9512 9.98779V10.7344H40.7231V13.2534H44.4399V14H39.7725V6.96387H44.3916V7.71045H40.7231V9.98779H43.9512ZM47.7217 7.71045H46.5132V13.2534H47.7217C48.3698 13.2534 48.8818 13.0439 49.2578 12.625C49.6374 12.2025 49.8271 11.6493 49.8271 10.9653V9.99316C49.8271 9.31283 49.6374 8.76318 49.2578 8.34424C48.8783 7.92171 48.3662 7.71045 47.7217 7.71045ZM47.7217 14H45.5625V6.96387H47.7217C48.6455 6.96387 49.3849 7.24495 49.9399 7.80713C50.4985 8.36572 50.7778 9.09798 50.7778 10.0039V10.9653C50.7778 11.8713 50.4985 12.6035 49.9399 13.1621C49.3849 13.7207 48.6455 14 47.7217 14Z" fill="white"/>
</svg>
