<svg width="30" height="31" viewBox="0 0 30 31" fill="none" xmlns="http://www.w3.org/2000/svg">
<path fill-rule="evenodd" clip-rule="evenodd" d="M7.58906 5.16999C7.36706 5.16949 7.15305 5.19546 6.9497 5.24482C6.67092 4.60991 6.3027 4.0403 5.88388 3.60753C5.17304 2.87299 4.05194 2.58337 2.5 2.58337V5.16671C3.44806 5.16671 3.99362 5.30764 4.11612 5.43422C4.58858 5.92243 5 6.91441 5 7.75004L5.01256 7.93271L6.2374 16.7924C4.18794 16.9022 2.60025 18.5469 2.50154 20.6027L2.5 21.9584C2.62103 24.0818 4.20344 25.7152 6.17905 25.8313L6.46282 25.8317C6.97717 27.3376 8.36664 28.4167 10 28.4167C11.6328 28.4167 13.0218 27.3384 13.5366 25.8334H16.4634C16.9782 27.3384 18.3672 28.4167 20 28.4167C22.0711 28.4167 23.75 26.6818 23.75 24.5417C23.75 22.4016 22.0711 20.6667 20 20.6667C18.3672 20.6667 16.9782 21.745 16.4634 23.25H13.5366C13.0218 21.745 11.6328 20.6667 10 20.6667C8.36723 20.6667 6.97818 21.745 6.46338 23.25H6.25C5.61251 23.2105 5.04067 22.6202 4.99776 21.881L5 20.6667C5.03371 19.9967 5.60164 19.4099 6.31194 19.3735L8.77962 19.3741L8.7975 19.375H21.3961L21.5806 19.3145C22.5283 19.0038 23.2871 18.2663 23.6463 17.3116L23.778 17.0423L24.2058 16.1664C24.6485 15.2597 25.0911 14.3514 25.5225 13.4641C26.579 11.2906 27.2435 9.90927 27.3906 9.57007C28.1463 7.82812 26.6155 6.48739 25.0509 6.45884L7.58906 5.16999ZM20.9618 16.7917H8.89109C8.81083 16.7687 8.74966 16.6984 8.73769 16.6109L7.51282 7.75099L24.8667 9.03515C24.5631 9.67504 24.0111 10.818 23.2885 12.3046L23.2704 12.3418C22.8578 13.1904 22.4158 14.0974 21.9738 15.0028L21.5464 15.8777L21.3844 16.209L21.3235 16.3554C21.2582 16.5434 21.1285 16.6979 20.9618 16.7917ZM20 25.8334C20.6904 25.8334 21.25 25.2551 21.25 24.5417C21.25 23.8283 20.6904 23.25 20 23.25C19.3096 23.25 18.75 23.8283 18.75 24.5417C18.75 25.2551 19.3096 25.8334 20 25.8334ZM11.25 24.5417C11.25 25.2551 10.6904 25.8334 10 25.8334C9.30964 25.8334 8.75 25.2551 8.75 24.5417C8.75 23.8283 9.30964 23.25 10 23.25C10.6904 23.25 11.25 23.8283 11.25 24.5417Z" fill="#B8C5D3"/>
</svg>
