<svg width="31" height="29" viewBox="0 0 31 29" fill="none" xmlns="http://www.w3.org/2000/svg">
<path fill-rule="evenodd" clip-rule="evenodd" d="M12.9167 3.625H18.0834C19.5101 3.625 20.6667 4.70698 20.6667 6.04167V7.25H25.8334C27.2601 7.25 28.4167 8.33198 28.4167 9.66667V22.9583C28.4167 24.293 27.2601 25.375 25.8334 25.375H5.16671C3.73997 25.375 2.58337 24.293 2.58337 22.9583V9.66667C2.58337 8.33198 3.73997 7.25 5.16671 7.25H10.3334V6.04167C10.3334 4.70698 11.49 3.625 12.9167 3.625ZM5.16671 9.66667H10.3334H20.6667H25.8334V15.7083H16.7917H14.2084H5.16671V9.66667ZM5.16671 22.9583V18.125H14.2084V19.3333H16.7917V18.125H25.8334V22.9583H5.16671ZM18.0834 6.04167V7.25H12.9167V6.04167H18.0834Z" fill="#B8C5D3"/>
</svg>
