<svg width="29" height="30" viewBox="0 0 29 30" fill="none" xmlns="http://www.w3.org/2000/svg">
<path fill-rule="evenodd" clip-rule="evenodd" d="M22.9583 12.5C22.9583 7.42603 20.2536 3.90438 16.754 2.84714C16.6273 2.50795 16.427 2.19263 16.1548 1.92804C15.2246 1.02399 13.7753 1.02399 12.8452 1.92804C12.5735 2.19204 12.3736 2.50657 12.2468 2.8449C8.74268 3.89753 6.04163 7.41149 6.04163 12.5C6.04163 15.7924 5.39998 17.6372 4.21216 18.9742C4.01356 19.1977 3.47548 19.7098 3.111 20.0566C2.93856 20.2207 2.80498 20.3478 2.76458 20.3899L2.41663 20.755V25.0176H9.77293C10.0217 26.3452 10.718 27.2333 11.9772 28.0283C13.5262 29.0061 15.4737 29.0061 17.0227 28.0283C18.134 27.3267 18.8791 26.2486 19.1814 25.0176H26.5833V20.755L26.2353 20.3899C26.1987 20.3515 26.0706 20.2292 25.903 20.0694L25.9029 20.0693L25.9028 20.0692C25.5395 19.7224 24.991 19.199 24.7894 18.9712C23.6008 17.628 22.9583 15.7808 22.9583 12.5ZM16.5985 25.0176H12.2991C12.4698 25.3461 12.7608 25.5942 13.2361 25.8942C14.0121 26.3841 14.9878 26.3841 15.7639 25.8942C16.1232 25.6674 16.404 25.3672 16.5985 25.0176ZM23.0068 20.6593C23.2611 20.9466 23.8061 21.4718 24.1666 21.8149V22.5176H4.83329V21.8155C5.19105 21.4764 5.73765 20.9516 5.99146 20.6659C7.60548 18.8493 8.45829 16.3973 8.45829 12.5C8.45829 7.77487 11.2771 5.01548 14.5 5.01548C17.7138 5.01548 20.5416 7.78911 20.5416 12.5C20.5416 16.3847 21.3947 18.8375 23.0068 20.6593Z" fill="#B8C5D3"/>
</svg>
