<svg width="29" height="31" viewBox="0 0 29 31" fill="none" xmlns="http://www.w3.org/2000/svg">
<path fill-rule="evenodd" clip-rule="evenodd" d="M7.89672 6.45837H25.375C26.7097 6.45837 27.7917 7.61497 27.7917 9.04171V21.9584C27.7917 23.3851 26.7097 24.5417 25.375 24.5417H7.89672C7.0887 24.5417 6.33414 24.11 5.88593 23.3914L1.41131 16.2165C1.14073 15.7827 1.14073 15.2174 1.41131 14.7836L5.88593 7.60873C6.33414 6.89005 7.0887 6.45837 7.89672 6.45837ZM3.86894 15.5L7.89672 21.9584H25.375V9.04171H7.89672L3.86894 15.5ZM9.66671 15.5C9.66671 16.2134 9.12572 16.7917 8.45837 16.7917C7.79103 16.7917 7.25004 16.2134 7.25004 15.5C7.25004 14.7867 7.79103 14.2084 8.45837 14.2084C9.12572 14.2084 9.66671 14.7867 9.66671 15.5Z" fill="#B8C5D3"/>
</svg>
