<svg width="29" height="29" viewBox="0 0 29 29" fill="none" xmlns="http://www.w3.org/2000/svg">
<path fill-rule="evenodd" clip-rule="evenodd" d="M22.5429 25.2506L25.222 22.5715L24.2784 19.1437L24.6895 18.1619L27.7917 16.4114V12.6228L24.6983 10.865L24.2941 9.88502L25.2495 6.45538L22.5686 3.7783L19.1404 4.72158L18.1608 4.31086L16.4102 1.20837H12.6216L10.8638 4.30176L9.88402 4.70585L6.45494 3.74927L3.77814 6.42606L4.72158 9.85481L4.31086 10.8344L1.20837 12.585V16.3725L4.29897 18.1342L4.7035 19.1151L3.74825 22.5441L6.42606 25.2219L9.85481 24.2785L10.8345 24.6893L12.5852 27.7905H16.3728L18.1332 24.6998L19.1138 24.2954L22.5429 25.2506ZM22.7803 16.4643L21.7269 18.9802L22.5188 21.8571L21.832 22.5439L18.9612 21.7442L16.4442 22.7822L14.9681 25.3738H13.9961L12.5322 22.7806L10.019 21.7268L7.14064 22.5188L6.45499 21.8332L7.2547 18.9625L6.2167 16.4456L3.62504 14.9683V13.9962L6.21945 12.5323L7.27323 10.019L6.48124 7.14064L7.16547 6.45642L10.0362 7.25723L12.5541 6.21879L14.0279 3.62504H14.999L16.4629 6.21945L18.9762 7.27323L21.8551 6.48109L22.5425 7.16746L21.7429 10.0376L22.7813 12.5553L25.375 14.0292V15.0002L22.7803 16.4643ZM14.5 19.3334C11.8307 19.3334 9.66671 17.1694 9.66671 14.5C9.66671 11.8307 11.8307 9.66671 14.5 9.66671C17.1694 9.66671 19.3334 11.8307 19.3334 14.5C19.3334 17.1694 17.1694 19.3334 14.5 19.3334ZM16.9167 14.5C16.9167 15.8347 15.8347 16.9167 14.5 16.9167C13.1654 16.9167 12.0834 15.8347 12.0834 14.5C12.0834 13.1654 13.1654 12.0834 14.5 12.0834C15.8347 12.0834 16.9167 13.1654 16.9167 14.5Z" fill="#B8C5D3"/>
</svg>
