<svg width="58" height="20" viewBox="0 0 58 20" fill="none" xmlns="http://www.w3.org/2000/svg">
<rect width="58" height="20" rx="5" transform="matrix(-1 0 0 1 58 0)" fill="#4EBDED"/>
<path d="M11.8701 6.96387H13.0894L15.3291 12.6787H15.3613L17.6011 6.96387H18.8203V14H17.8696V11.2178L17.9663 8.35498L17.9395 8.34961L15.6621 14H15.0283L12.7563 8.36572H12.7295L12.8208 11.2178V14H11.8701V6.96387ZM24.75 9.98779V10.7344H21.522V13.2534H25.2388V14H20.5713V6.96387H25.1904V7.71045H21.522V9.98779H24.75ZM29.0845 10.9492H27.312V14H26.3613V6.96387H28.9072C29.6807 6.96387 30.2697 7.13395 30.6743 7.47412C31.0789 7.81429 31.2812 8.31201 31.2812 8.96729C31.2812 9.69775 30.9124 10.2241 30.1748 10.5464C30.9017 10.7827 31.2651 11.3359 31.2651 12.2061V12.8667C31.2651 13.3465 31.3726 13.6849 31.5874 13.8818V14H30.6045C30.4076 13.8245 30.3091 13.445 30.3091 12.8613V12.2168C30.3091 11.8337 30.1981 11.5275 29.9761 11.2983C29.7541 11.0656 29.4569 10.9492 29.0845 10.9492ZM27.312 7.71045V10.2026H28.8105C29.3477 10.2026 29.7344 10.1024 29.9707 9.90186C30.2106 9.69775 30.3306 9.38265 30.3306 8.95654C30.3306 8.12581 29.8561 7.71045 28.9072 7.71045H27.312ZM36.9854 11.7603H37.8931L37.9038 11.7871C37.9181 12.4603 37.6854 13.0171 37.2056 13.4575C36.7257 13.8944 36.092 14.1128 35.3042 14.1128C34.5164 14.1128 33.8719 13.8335 33.3706 13.2749C32.8693 12.7127 32.6187 11.9948 32.6187 11.1211V9.86963C32.6187 8.99593 32.8693 8.27799 33.3706 7.71582C33.8719 7.15365 34.5218 6.87256 35.3203 6.87256C36.1188 6.87256 36.7526 7.08382 37.2217 7.50635C37.6943 7.92529 37.9235 8.48747 37.9092 9.19287L37.8984 9.21973H36.9854C36.9854 8.71842 36.8385 8.32633 36.5449 8.04346C36.2549 7.76058 35.8467 7.61914 35.3203 7.61914C34.7975 7.61914 34.3768 7.8304 34.0581 8.25293C33.7394 8.67546 33.5801 9.21077 33.5801 9.85889V11.1211C33.5801 11.7764 33.7394 12.3153 34.0581 12.7378C34.3768 13.1567 34.7993 13.3662 35.3257 13.3662C35.8521 13.3662 36.2603 13.2266 36.5503 12.9473C36.8403 12.6644 36.9854 12.2687 36.9854 11.7603ZM44.521 6.96387V14H43.5703V10.8901H40.1489V14H39.1982V6.96387H40.1489V10.1436H43.5703V6.96387H44.521Z" fill="white"/>
</svg>
