<svg width="58" height="20" viewBox="0 0 58 20" fill="none" xmlns="http://www.w3.org/2000/svg">
<rect width="58" height="20" rx="5" transform="matrix(-1 0 0 1 58 0)" fill="#DA22DE"/>
<path d="M6.29346 10.6445V9.61182C6.29346 9.07568 6.1499 8.64209 5.86279 8.31104C5.57568 7.97705 5.20068 7.81006 4.73779 7.81006C4.2749 7.81006 3.90723 7.97705 3.63477 8.31104C3.3623 8.64502 3.22607 9.07861 3.22607 9.61182V10.6445C3.22607 11.1836 3.36084 11.6201 3.63037 11.9541C3.90283 12.2881 4.27197 12.4551 4.73779 12.4551C5.20361 12.4551 5.57861 12.2896 5.86279 11.9585C6.1499 11.6245 6.29346 11.1865 6.29346 10.6445ZM7.07129 9.62061V10.6445C7.07129 11.3564 6.85303 11.9424 6.4165 12.4023C5.97998 12.8623 5.41895 13.0923 4.7334 13.0923C4.05078 13.0923 3.49854 12.8623 3.07666 12.4023C2.65771 11.9424 2.44824 11.3564 2.44824 10.6445V9.62061C2.44824 8.90869 2.65771 8.32275 3.07666 7.86279C3.49854 7.3999 4.05078 7.16846 4.7334 7.16846C5.41895 7.16846 5.97998 7.39844 6.4165 7.8584C6.85303 8.31836 7.07129 8.90576 7.07129 9.62061ZM9.00928 7.854V10.082H10.4331C10.814 10.082 11.1025 9.98096 11.2988 9.77881C11.498 9.57666 11.5977 9.30859 11.5977 8.97461C11.5977 8.64062 11.498 8.37109 11.2988 8.16602C11.0996 7.95801 10.811 7.854 10.4331 7.854H9.00928ZM10.4331 10.6885H9.00928V13H8.23145V7.24316H10.4331C11.0425 7.24316 11.5186 7.3999 11.8613 7.71338C12.2041 8.02393 12.3755 8.44434 12.3755 8.97461C12.3755 9.50195 12.2041 9.91943 11.8613 10.2271C11.5215 10.5347 11.0454 10.6885 10.4331 10.6885ZM16.8447 9.71729V10.3281H14.2036V12.3892H17.2446V13H13.4258V7.24316H17.2051V7.854H14.2036V9.71729H16.8447ZM20.3911 10.5039H18.9409V13H18.1631V7.24316H20.2461C20.8789 7.24316 21.3608 7.38232 21.6919 7.66064C22.0229 7.93896 22.1885 8.34619 22.1885 8.88232C22.1885 9.47998 21.8867 9.91064 21.2832 10.1743C21.8779 10.3677 22.1753 10.8203 22.1753 11.5322V12.0728C22.1753 12.4653 22.2632 12.7422 22.439 12.9033V13H21.6348C21.4736 12.8564 21.3931 12.5459 21.3931 12.0684V11.541C21.3931 11.2275 21.3022 10.9771 21.1206 10.7896C20.939 10.5991 20.6958 10.5039 20.3911 10.5039ZM18.9409 7.854V9.89307H20.167C20.6064 9.89307 20.9229 9.81104 21.1162 9.64697C21.3125 9.47998 21.4106 9.22217 21.4106 8.87354C21.4106 8.19385 21.0225 7.854 20.2461 7.854H18.9409ZM27.1938 13L26.6533 11.5146H24.2407L23.6958 13H22.9004L25.1284 7.24316H25.7964L27.9849 13H27.1938ZM25.4492 8.24072L24.4824 10.8643H26.4204L25.4712 8.24072H25.4492ZM32.2476 7.24316V7.854H30.3975V13H29.6196V7.854H27.7739V7.24316H32.2476ZM33.9175 7.24316V13H33.1353V7.24316H33.9175ZM38.9712 10.6445V9.61182C38.9712 9.07568 38.8276 8.64209 38.5405 8.31104C38.2534 7.97705 37.8784 7.81006 37.4155 7.81006C36.9526 7.81006 36.585 7.97705 36.3125 8.31104C36.04 8.64502 35.9038 9.07861 35.9038 9.61182V10.6445C35.9038 11.1836 36.0386 11.6201 36.3081 11.9541C36.5806 12.2881 36.9497 12.4551 37.4155 12.4551C37.8813 12.4551 38.2563 12.2896 38.5405 11.9585C38.8276 11.6245 38.9712 11.1865 38.9712 10.6445ZM39.749 9.62061V10.6445C39.749 11.3564 39.5308 11.9424 39.0942 12.4023C38.6577 12.8623 38.0967 13.0923 37.4111 13.0923C36.7285 13.0923 36.1763 12.8623 35.7544 12.4023C35.3354 11.9424 35.126 11.3564 35.126 10.6445V9.62061C35.126 8.90869 35.3354 8.32275 35.7544 7.86279C36.1763 7.3999 36.7285 7.16846 37.4111 7.16846C38.0967 7.16846 38.6577 7.39844 39.0942 7.8584C39.5308 8.31836 39.749 8.90576 39.749 9.62061ZM45.2642 7.24316V13H44.4863L41.7134 8.54834L41.687 8.55273V13H40.9092V7.24316H41.687L44.46 11.686L44.4863 11.6772V7.24316H45.2642ZM50.353 13L49.8125 11.5146H47.3999L46.855 13H46.0596L48.2876 7.24316H48.9556L51.144 13H50.353ZM48.6084 8.24072L47.6416 10.8643H49.5796L48.6304 8.24072H48.6084ZM52.7173 7.24316V12.3892H55.4419V13H51.9395V7.24316H52.7173Z" fill="white"/>
</svg>
