<svg width="58" height="20" viewBox="0 0 58 20" fill="none" xmlns="http://www.w3.org/2000/svg">
<rect width="58" height="20" rx="5" transform="matrix(-1 0 0 1 58 0)" fill="#E5E9F2"/>
<path d="M5.8208 7.71045V10.4336H7.56104C8.02653 10.4336 8.37923 10.3101 8.61914 10.063C8.86263 9.81592 8.98438 9.48828 8.98438 9.08008C8.98438 8.67188 8.86263 8.34245 8.61914 8.0918C8.37565 7.83757 8.02295 7.71045 7.56104 7.71045H5.8208ZM7.56104 11.1748H5.8208V14H4.87012V6.96387H7.56104C8.30583 6.96387 8.8877 7.15544 9.30664 7.53857C9.72559 7.91813 9.93506 8.43197 9.93506 9.08008C9.93506 9.72461 9.72559 10.2349 9.30664 10.6108C8.89128 10.9868 8.30941 11.1748 7.56104 11.1748ZM15.3975 9.98779V10.7344H12.1694V13.2534H15.8862V14H11.2188V6.96387H15.8379V7.71045H12.1694V9.98779H15.3975ZM19.7319 10.9492H17.9595V14H17.0088V6.96387H19.5547C20.3281 6.96387 20.9172 7.13395 21.3218 7.47412C21.7264 7.81429 21.9287 8.31201 21.9287 8.96729C21.9287 9.69775 21.5599 10.2241 20.8223 10.5464C21.5492 10.7827 21.9126 11.3359 21.9126 12.2061V12.8667C21.9126 13.3465 22.02 13.6849 22.2349 13.8818V14H21.252C21.055 13.8245 20.9565 13.445 20.9565 12.8613V12.2168C20.9565 11.8337 20.8455 11.5275 20.6235 11.2983C20.4015 11.0656 20.1043 10.9492 19.7319 10.9492ZM17.9595 7.71045V10.2026H19.458C19.9951 10.2026 20.3818 10.1024 20.6182 9.90186C20.8581 9.69775 20.978 9.38265 20.978 8.95654C20.978 8.12581 20.5036 7.71045 19.5547 7.71045H17.9595ZM24.1147 11.9858C24.1147 12.4263 24.2741 12.7664 24.5928 13.0063C24.915 13.2463 25.325 13.3662 25.8228 13.3662C26.3205 13.3662 26.709 13.266 26.9883 13.0654C27.2676 12.8613 27.4072 12.5892 27.4072 12.249C27.4072 11.9089 27.2819 11.6313 27.0312 11.4165C26.7842 11.2017 26.3599 11.0226 25.7583 10.8794C24.1792 10.4998 23.3896 9.80518 23.3896 8.79541C23.3896 8.2404 23.6152 7.78206 24.0664 7.42041C24.5176 7.05518 25.1084 6.87256 25.8389 6.87256C26.5729 6.87256 27.1727 7.07845 27.6382 7.49023C28.1037 7.90202 28.3275 8.39616 28.3096 8.97266L28.2988 9.00488H27.3911C27.3911 8.58236 27.2533 8.24577 26.9775 7.99512C26.7018 7.74447 26.3205 7.61914 25.8335 7.61914C25.3501 7.61914 24.9795 7.72477 24.7217 7.93604C24.4674 8.14372 24.3403 8.41406 24.3403 8.74707C24.3403 9.0765 24.4764 9.34326 24.7485 9.54736C25.0207 9.74788 25.4665 9.92692 26.0859 10.0845C27.6006 10.4676 28.3579 11.182 28.3579 12.2275C28.3579 12.7969 28.127 13.2534 27.665 13.5972C27.2031 13.9409 26.5962 14.1128 25.8442 14.1128C25.368 14.1128 24.9276 14.0304 24.5229 13.8657C24.1219 13.6974 23.7979 13.4504 23.5508 13.1245C23.3037 12.7987 23.1855 12.4281 23.1963 12.0127L23.207 11.9858H24.1147ZM34.1265 11.1211V9.85889C34.1265 9.20361 33.951 8.67367 33.6001 8.26904C33.2492 7.86084 32.7909 7.65674 32.2251 7.65674C31.6593 7.65674 31.21 7.86084 30.877 8.26904C30.5439 8.67725 30.3774 9.20719 30.3774 9.85889V11.1211C30.3774 11.7799 30.5422 12.3135 30.8716 12.7217C31.2046 13.1299 31.6558 13.334 32.2251 13.334C32.7944 13.334 33.2528 13.1317 33.6001 12.7271C33.951 12.3188 34.1265 11.7835 34.1265 11.1211ZM35.0771 9.86963V11.1211C35.0771 11.9912 34.8104 12.7074 34.2769 13.2695C33.7433 13.8317 33.0576 14.1128 32.2197 14.1128C31.3854 14.1128 30.7104 13.8317 30.1948 13.2695C29.6828 12.7074 29.4268 11.9912 29.4268 11.1211V9.86963C29.4268 8.99951 29.6828 8.28337 30.1948 7.72119C30.7104 7.15544 31.3854 6.87256 32.2197 6.87256C33.0576 6.87256 33.7433 7.15365 34.2769 7.71582C34.8104 8.27799 35.0771 8.99593 35.0771 9.86963ZM41.8179 6.96387V14H40.8672L37.478 8.55908L37.4458 8.56445V14H36.4951V6.96387H37.4458L40.835 12.394L40.8672 12.3833V6.96387H41.8179ZM48.0376 14L47.377 12.1846H44.4282L43.7622 14H42.79L45.5132 6.96387H46.3296L49.0044 14H48.0376ZM45.9053 8.18311L44.7236 11.3896H47.0923L45.9321 8.18311H45.9053ZM50.9272 6.96387V13.2534H54.2573V14H49.9766V6.96387H50.9272Z" fill="white"/>
</svg>
